PathFileType	4	(X/Y/Z)	Run_200 02
DataRate	CameraRate	NumFrames	NumMarkers	Units	OrigDataRate	OrigDataStartFrame	OrigNumFrames
100	100	5	42	mm	100	220	128
Frame#	Time	RASI			LPSI			RPSI			RTH1			RTH2			RTH3			LTH1			LTH2			LTH3			RTB1			RTB2			RTB3			LTB1			LTB2			LTB3			RCAL			RTOE			RMT5			LCAL			LTOE			LMT5			LACR			RACR			C7			RUA1			RUA2			RUA3			RLEL			RMEL			LUA2			LUA3			LLEL			LMEL			RFAsuperior			RFAradius			RFAulna			LFAsuperior			LFAradius			LFAulna			LUA1			CLAV			LASI			
		X1	Y1	Z1	X2	Y2	Z2	X3	Y3	Z3	X4	Y4	Z4	X5	Y5	Z5	X6	Y6	Z6	X7	Y7	Z7	X8	Y8	Z8	X9	Y9	Z9	X10	Y10	Z10	X11	Y11	Z11	X12	Y12	Z12	X13	Y13	Z13	X14	Y14	Z14	X15	Y15	Z15	X16	Y16	Z16	X17	Y17	Z17	X18	Y18	Z18	X19	Y19	Z19	X20	Y20	Z20	X21	Y21	Z21	X22	Y22	Z22	X23	Y23	Z23	X24	Y24	Z24	X25	Y25	Z25	X26	Y26	Z26	X27	Y27	Z27	X28	Y28	Z28	X29	Y29	Z29	X30	Y30	Z30	X31	Y31	Z31	X32	Y32	Z32	X33	Y33	Z33	X34	Y34	Z34	X35	Y35	Z35	X36	Y36	Z36	X37	Y37	Z37	X38	Y38	Z38	X39	Y39	Z39	X40	Y40	Z40	X41	Y41	Z41	X42	Y42	Z42	

208	2.9	1169.760517	997.113779	-175.649073	996.263024	1044.880264	-352.157055	993.6002989999999	1038.387342	-258.953845	1128.832858	812.375451	-138.207744	1152.30141	711.825522	-153.82086	1078.435446	578.022567	-154.804744	1116.464387	857.678076	-496.026458	1207.782029	744.699883	-481.975189	1171.322203	616.744294	-452.26219	968.3674590000001	355.715877	-214.389129	860.558568	343.129475	-162.23544	802.741598	287.000407	-219.222844	1231.072	343.470547	-358.32484	1188.750841	284.921008	-397.010185	1191.167791	212.668119	-332.848154	675.29872	350.183928	-200.223951	727.64512	125.401829	-250.384127	697.850818	120.922828	-176.562184	1050.846163	100.054825	-304.195803	1294.050868	78.30470699999999	-288.658997	1264.890511	58.688142	-373.909395	1138.833511	1520.141872	-483.540399	1197.725703	1506.671092	-144.597702	1102.602096	1542.025064	-306.338078	1145.555535	1380.225374	-59.544335	1078.422671	1382.358071	-42.316773	1086.195253	1307.734479	-30.974839	1045.656812	1240.227432	-6.670683	983.954983	1253.209376	-77.907388	962.003437	1409.039845	-517.155037	960.784676	1341.474522	-573.973463	918.887233	1282.142894	-586.432079	903.107923	1270.503418	-494.636763	1119.806888	1211.488125	-47.808189	1229.203291	1168.304911	-175.786239	1208.021894	1107.570171	-142.98468	996.596581	1239.586494	-587.955869	1165.008269	1206.969297	-525.862782	1139.503242	1141.570039	-538.7835250000001	1040.601189	1438.605282	-555.975923	1222.329172	1452.382017	-293.320777	1176.806714	1008.472534	-434.174744	
209	2.91	1164.988022	991.725318	-174.064953	992.43998	1039.918544	-350.947834	989.9521999999999	1032.488062	-258.049069	1128.821444	807.993249	-137.208706	1156.557329	708.163463	-152.316772	1087.0471	573.277547	-153.885733	1112.704758	854.335323	-495.902633	1203.738185	742.4525630000001	-482.853149	1168.748982	613.351707	-453.367152	980.3444009999999	353.211308	-213.448803	872.5501829999999	343.256074	-161.259571	813.2534450000001	288.744023	-217.979961	1222.130168	339.479379	-360.169515	1176.411397	282.985361	-398.288031	1176.617683	210.378199	-334.266812	685.327928	353.919555	-199.208112	738.175878	128.788452	-247.379826	709.429105	125.151178	-172.970997	1031.385756	100.853145	-304.44059	1274.915016	76.784226	-288.735816	1245.351053	57.900181	-373.980254	1140.324662	1511.795337	-486.362877	1193.715641	1499.499706	-143.616125	1102.862664	1538.531134	-308.583477	1137.732512	1370.964184	-61.397662	1069.98466	1372.953851	-44.707384	1076.973033	1298.011625	-36.078166	1036.085768	1231.192977	-12.334859	976.563236	1244.276344	-85.24230799999999	965.575217	1392.235645	-524.9159	969.271783	1322.173929	-577.443078	928.9573789999999	1264.08367	-591.615231	910.925931	1252.448686	-500.708196	1111.1168	1199.713179	-51.017088	1223.94021	1150.258771	-172.742465	1199.551618	1090.859434	-139.040388	1006.204829	1221.300368	-591.461775	1173.54254	1190.82981	-525.441905	1148.843377	1125.134967	-539.050165	1046.011908	1422.064831	-560.460816	1221.640369	1445.661359	-293.063268	1172.494773	1003.637953	-432.650868	
210	2.92	1160.148877	987.412461	-172.376073	989.073296	1036.097867	-350.262873	986.391783	1027.74549	-257.702966	1128.054369	804.192209	-135.964814	1161.184571	705.249414	-150.839976	1096.221824	569.874688	-152.480542	1108.476548	850.774777	-495.889829	1199.96851	739.938801	-483.169795	1164.223022	609.939871	-454.437519	993.280862	351.502043	-212.450612	885.533692	343.540915	-160.293639	825.271205	290.127938	-216.847741	1211.702749	335.178692	-362.888966	1162.64732	280.726818	-399.654608	1161.20627	207.938755	-335.467724	696.309509	356.60202	-198.935715	751.325468	131.376926	-244.199519	723.430594	128.66668	-169.280828	1011.941483	101.617877	-304.747846	1255.619626	75.739153	-288.771782	1225.733224	57.367767	-373.995192	1141.86368	1504.734326	-488.202492	1189.321661	1493.422669	-142.921124	1102.696264	1535.09552	-310.092872	1129.675743	1363.7528	-63.12248	1061.219421	1365.349325	-47.821227	1067.608314	1290.377228	-40.712752	1026.525817	1223.42003	-18.164501	969.227385	1236.38824	-92.670316	970.388929	1376.464348	-532.2230939999999	979.167135	1304.085805	-580.11103	941.033636	1246.601506	-596.003145	920.189629	1234.474847	-506.423138	1102.654679	1189.986653	-54.74212	1218.101017	1133.552333	-169.280515	1190.168781	1075.407611	-135.372935	1017.856093	1204.131822	-593.616897	1183.313609	1175.071241	-523.589167	1159.349161	1109.015184	-538.668118	1053.279336	1406.734809	-563.592484	1220.410525	1439.867865	-292.494864	1168.127661	999.9054620000001	-431.058947	
211	2.93	1155.638969	984.0871979999999	-170.880953	986.200003	1033.496945	-350.290229	982.938543	1024.414736	-258.005372	1126.706463	801.116485	-134.759102	1166.012337	703.390741	-149.059498	1106.024393	567.274997	-150.875957	1104.044526	847.822709	-496.063546	1196.135423	736.739254	-483.516423	1157.867488	606.874251	-455.368849	1006.983011	351.054519	-211.464424	899.256794	343.952559	-159.46896	838.559671	291.154198	-215.976864	1199.937232	331.149997	-365.124146	1148.624712	278.32936	-400.740747	1145.025211	205.764244	-336.011769	708.047643	358.074762	-199.333659	766.943363	133.096324	-240.734958	739.496979	131.334326	-165.575655	992.411995	102.437001	-305.118568	1236.097693	74.96695200000001	-288.556889	1206.023424	57.110817	-373.826446	1143.672647	1498.897322	-489.313373	1184.377218	1488.44624	-142.306282	1101.837401	1531.357157	-311.165327	1121.306945	1358.641294	-64.62527799999999	1052.101536	1359.889298	-51.749142	1058.112096	1284.982733	-44.733664	1016.80079	1217.444631	-23.719924	962.390136	1229.9787	-99.954796	976.638987	1362.413691	-538.4910170000001	990.0784200000001	1288.363406	-582.063132	954.965535	1230.45331	-599.341921	930.237376	1217.463546	-511.391696	1094.125939	1182.319551	-58.249673	1211.586269	1119.074935	-165.440516	1179.861884	1062.151238	-132.211289	1031.996309	1189.370402	-594.194058	1194.358631	1160.632216	-520.307791	1171.037233	1094.270235	-537.510587	1061.627643	1393.923695	-565.155455	1218.707538	1435.313661	-291.655039	1164.098354	997.233008	-429.736542	
212	2.94	1151.743137	981.668807	-169.92982	983.710094	1031.901126	-350.88067	979.62621	1022.500569	-258.72182	1125.199933	798.946606	-133.830235	1170.797203	702.7950080000001	-147.010249	1116.329319	565.365534	-149.416792	1099.79903	845.9387840000001	-496.305299	1191.865195	733.1528029999999	-483.731936	1150.307825	604.3262	-456.215933	1021.332587	352.044759	-210.602636	913.575098	344.462918	-158.945624	852.932204	291.767512	-215.427719	1186.842314	327.678331	-366.029447	1134.615501	275.916265	-401.403054	1128.168199	204.01659	-336.154925	720.421471	358.159018	-200.299113	784.764175	133.852907	-236.993247	757.417179	133.05609	-161.861977	972.7713659999999	103.306979	-305.642902	1216.391998	74.35193599999999	-288.29677	1186.231058	56.935587	-373.687456	1145.933636	1494.288036	-490.140171	1178.960162	1484.574485	-141.671233	1100.461134	1527.859748	-312.286231	1112.556137	1355.36593	-65.819728	1042.66151	1356.508896	-56.161702	1048.347808	1281.65948	-48.137819	1006.521434	1213.663732	-28.524236	956.14518	1225.517509	-106.810487	983.9145580000001	1350.450044	-543.225111	1001.40845	1275.510321	-583.1487100000001	969.783363	1216.461199	-601.2956359999999	940.344154	1202.600559	-515.053852	1084.713728	1176.196977	-60.51781	1204.457979	1107.841111	-161.279645	1168.794209	1052.172596	-129.651563	1047.900703	1177.608227	-593.243154	1206.335108	1148.645653	-515.922667	1183.658868	1082.124162	-535.456849	1069.543473	1384.294716	-565.58279	1216.728684	1432.076092	-290.64282	1160.647749	995.474712	-429.019823	
